# xmcd
#
# Track frame offsets:
#	150
#	18080
#	31838
#	45683
#	71848
#	87688
#	107605
#	127065
#	141130
#	162225
#	185133
#	199853
#	225893
#	239695
#
# Disc length: 3446 seconds
#
# Revision: 0
# Processed by: cddbd v1.5.2PL0 Copyright (c) Steve Scherf et al.
# Submitted via: EasyCDDAExtractor 16.0.6.1
#
DISCID=c30d740e
DTITLE=ABBA - The Hits Vol.2
DYEAR=1988
DGENRE=Acoustic
TTITLE0=The Name Of The Game (Abba)
TTITLE1=Arrival (Abba)
TTITLE2=Ring Ring (Abba)
TTITLE3=Eagle (Abba)
TTITLE4=Summer Night City (Abba)
TTITLE5=Happy New Year (Abba)
TTITLE6=Angel Eyes (Abba)
TTITLE7=Money Money Money (Abba)
TTITLE8=Andante Andante (Abba)
TTITLE9=Voulez-Vous (Abba)
TTITLE10=Kisses Of Fire (Abba)
TTITLE11=The Day Before You Came (Abba)
TTITLE12=When I Kissed The Teacher (Abba)
TTITLE13=Fernando (Abba)
EXTD=
EXTT0=
EXTT1=
EXTT2=
EXTT3=
EXTT4=
EXTT5=
EXTT6=
EXTT7=
EXTT8=
EXTT9=
EXTT10=
EXTT11=
EXTT12=
EXTT13=
PLAYORDER=
